# xmcd CD database file
# Copyright (C) 1993-1998 Ti Kan
# 
# Track frame offsets:
#     150
#     11385
#     24300
#     36045
#     50732
#     61012
#     72752
#     85500
#     97082
#     109730
#     121585
#     133807
#     143042
#     153237
#     168312
#     185277
#     195995
#     205397
#     220380
#     238125
#     246407
#     255567
# 
# Disc length: 3591 seconds
# 
# Revision: 1
# Processed by: cddbd v1.4b41PL1 Copyright (c) Steve Scherf et al.
# Submitted via: DiscPlay 4.0.4
# 
DISCID=290e0516
DTITLE=Danny Davis - Big Band Tribute and We Sing Too!
DYEAR=1900
DGENRE=
TTITLE0=String of Pearls
TTITLE1=Moonlight Serenade
TTITLE2=I'm Gonna Sit Right Down and Write Myself A Letter
TTITLE3=Cherokee
TTITLE4=Oh!
TTITLE5=Smoke Rings
TTITLE6=I'll Never Smile Again
TTITLE7=Let's Dance
TTITLE8=Sentimental Journey
TTITLE9=Ain't Misbehavin'
TTITLE10=How I Love Them Old Songs
TTITLE11=Say, Has Anyone Seen My Sweet Gypsy Rose?
TTITLE12=Danny Boy
TTITLE13=Old Fashioned Love Song
TTITLE14=Somewhere My Love
TTITLE15=Southern Nights
TTITLE16=One Of Those Songs
TTITLE17=My Melody Of Love
TTITLE18=A Daisy A Day
TTITLE19=Baby, You're Lookin' For Me
TTITLE20=Smile, Smile, Smile
TTITLE21=Another Somebody Done Somebody Wrong Song
EXTD=
EXTT0=
EXTT1=
EXTT2=vocals by Danny Davis Singers
EXTT3=
EXTT4=
EXTT5=
EXTT6=Vocals by Danny Davis Singers
EXTT7=
EXTT8=
EXTT9=
EXTT10=Vocals
EXTT11=Vocals
EXTT12=Vocals
EXTT13=Vocals
EXTT14=Vocals
EXTT15=
EXTT16=vocals
EXTT17=
EXTT18=vocals
EXTT19=vocals
EXTT20=vocals
EXTT21=vocals
PLAYORDER=
